<svg xmlns="http://www.w3.org/2000/svg" viewBox="0 0 64 64" role="img" aria-label="Memoria Colectiva">
  <path
    d="M23 19h24a5 5 0 0 1 5 5v25a5 5 0 0 1-5 5H23a5 5 0 0 1-5-5V24a5 5 0 0 1 5-5Z"
    fill="#1D3557"
  />
  <path
    d="M15 11h24a5 5 0 0 1 5 5v25a5 5 0 0 1-5 5H15a5 5 0 0 1-5-5V16a5 5 0 0 1 5-5Z"
    fill="#E63946"
    stroke="#111111"
    stroke-width="2"
  />
  <path
    d="M7 5h24a5 5 0 0 1 5 5v25a5 5 0 0 1-5 5H7a5 5 0 0 1-5-5V10a5 5 0 0 1 5-5Z"
    fill="#F2EFE9"
    stroke="#111111"
    stroke-width="2"
  />
  <path d="M11 14h12M11 20h15M11 26h10" fill="none" stroke="#111111" stroke-linecap="round" stroke-width="2.5" />
  <path
    d="M20 31c4-5 9-7 14-6 5 1 9 5 13 6 5 1 9-1 14-5"
    fill="none"
    stroke="#E63946"
    stroke-linecap="round"
    stroke-linejoin="round"
    stroke-width="3"
  />
  <circle cx="20" cy="31" r="3.5" fill="#1D3557" stroke="#F2EFE9" stroke-width="1.5" />
  <circle cx="34" cy="25" r="3.5" fill="#1D3557" stroke="#F2EFE9" stroke-width="1.5" />
  <circle cx="47" cy="32" r="3.5" fill="#1D3557" stroke="#F2EFE9" stroke-width="1.5" />
  <circle cx="58" cy="26" r="3.5" fill="#1D3557" stroke="#F2EFE9" stroke-width="1.5" />
</svg>
